<svg width="76" height="66" viewBox="0 0 76 66" fill="none" xmlns="http://www.w3.org/2000/svg">
<g filter="url(#filter0_d_2_176)">
<path d="M42.4268 19.9997C46.6605 19.9997 50.1021 23.1107 50.1021 26.9377C50.1021 27.9534 49.8074 28.897 49.3714 29.7656C48.2846 29.8239 47.1609 29.971 45.939 30.2873C44.3395 26.5325 41.0145 23.5852 36.8299 22.2254C38.2299 20.8655 40.2132 19.9997 42.4268 19.9997Z" fill="#EFFF8D"/>
<path d="M45.4969 4.7361L42.4268 13.0617L39.3566 4.7361C38.7917 3.20141 39.7066 1.5474 41.4013 1.03676C43.0991 0.523348 44.932 1.35313 45.4969 2.88504C45.7272 3.51224 45.7118 4.15608 45.4969 4.7361Z" fill="#EFFF8D"/>
<path d="M61.9651 13.2004L53.2797 17.1274L57.6239 9.27632C58.4253 7.83044 60.3686 7.24765 61.9651 7.96643C63.5647 8.69075 64.2094 10.4475 63.4142 11.8933C63.0857 12.4817 62.573 12.9257 61.9651 13.2004Z" fill="#EFFF8D"/>
<path d="M66.9879 29.7129L57.7775 26.9377L66.9879 24.1625C68.6856 23.6491 70.5155 24.4789 71.0834 26.0135C71.6483 27.5454 70.7304 29.1995 69.0326 29.7129C68.3418 29.921 67.6295 29.9044 66.9879 29.7129Z" fill="#EFFF8D"/>
<path fill-rule="evenodd" clip-rule="evenodd" d="M55.5547 30.662C55.9814 29.4853 56.2424 28.2448 56.2424 26.9377C56.2424 20.0524 50.0438 14.4493 42.4268 14.4493C38.3128 14.4493 34.6378 16.0978 32.1203 18.6898L31.6813 18.6121C26.2287 18.6121 21.338 20.7767 17.9608 24.193C17.224 23.971 16.5117 23.9543 15.821 24.1625C14.1232 24.6759 13.2052 26.3299 13.7701 27.8618C13.9451 28.3253 14.2552 28.6916 14.6205 29.0024C13.7517 30.9367 13.2605 33.0487 13.2605 35.2633L13.2666 35.6129C7.97061 36.8479 4.05005 41.1994 4.05005 46.3641C4.05005 52.4861 9.56095 57.4648 16.3306 57.4648H50.1021C58.5665 57.4648 65.4528 51.2401 65.4528 43.5889C65.4528 37.6805 61.3265 32.6574 55.5547 30.662ZM42.4268 19.9997C46.6605 19.9997 50.1021 23.1107 50.1021 26.9377C50.1021 27.9534 49.8074 28.897 49.3714 29.7656C48.2846 29.8239 47.1609 29.971 45.939 30.2873C44.3395 26.5325 41.0145 23.5852 36.8299 22.2254C38.2299 20.8655 40.2132 19.9997 42.4268 19.9997ZM50.1021 51.9144H16.3306C12.9412 51.9144 10.1903 49.4251 10.1903 46.3641C10.1903 43.303 12.9412 40.8137 16.0481 40.797L20.4139 40.8414L19.6525 37.5056C19.4836 36.7757 19.4007 36.0181 19.4007 35.2633C19.4007 29.1412 24.9116 24.1625 31.6813 24.1625L31.8931 24.1236C37.7387 24.2763 42.6233 28.0256 43.7039 33.1985L43.8206 33.7147C44.1982 34.9247 45.4079 35.674 46.725 35.6906L47.6122 35.6268C48.5701 35.377 49.3591 35.2633 50.1021 35.2633C55.1801 35.2633 59.3125 38.9987 59.3125 43.5889C59.3125 48.179 55.1801 51.9144 50.1021 51.9144Z" fill="#8DBBFF"/>
<path d="M27.2296 9.27632L31.5738 17.1274L22.8884 13.2004C21.2889 12.4761 20.6411 10.7194 21.4393 9.27632C22.2406 7.83044 24.1871 7.24765 25.7805 7.96643C26.4344 8.26337 26.9256 8.72683 27.2296 9.27632Z" fill="#EFFF8D"/>
</g>
<defs>
<filter id="filter0_d_2_176" x="0.0500488" y="0.884766" width="75.2" height="64.5801" filterUnits="userSpaceOnUse" color-interpolation-filters="sRGB">
<feFlood flood-opacity="0" result="BackgroundImageFix"/>
<feColorMatrix in="SourceAlpha" type="matrix" values="0 0 0 0 0 0 0 0 0 0 0 0 0 0 0 0 0 0 127 0" result="hardAlpha"/>
<feOffset dy="4"/>
<feGaussianBlur stdDeviation="2"/>
<feComposite in2="hardAlpha" operator="out"/>
<feColorMatrix type="matrix" values="0 0 0 0 0 0 0 0 0 0 0 0 0 0 0 0 0 0 0.25 0"/>
<feBlend mode="normal" in2="BackgroundImageFix" result="effect1_dropShadow_2_176"/>
<feBlend mode="normal" in="SourceGraphic" in2="effect1_dropShadow_2_176" result="shape"/>
</filter>
</defs>
</svg>
