<svg xmlns="http://www.w3.org/2000/svg"  viewBox="0 0 100 100" width="100px" height="100px"><path fill="#c7ede6" d="M88.699,56.831c0.3-0.616,0.566-1.264,0.796-1.943c2.633-7.77-1.349-17.078-9.733-19.325	C78.854,24.18,70.854,16.37,61.82,15.038c-10.341-1.525-19.814,5.044-22.966,15.485c-3.799-1.346-7.501-1.182-10.99,0.857	c-1.583,0.732-3.031,1.812-4.33,3.233c-1.907,2.086-3.147,4.719-3.652,7.495c-0.748,0.118-1.483,0.236-2.176,0.484	c-4.04,1.449-6.589,4.431-7.288,8.923c-0.435,2.797,0.443,5.587,0.933,6.714c1.935,4.455,6.422,6.98,10.981,6.312	c0.227-0.033,0.557,0.069,0.752,0.233c0.241,7.12,3.698,13.417,8.884,17.014c8.321,5.772,19.027,3.994,25.781-3.921	c2.894,2.96,6.338,4.398,10.384,3.876c4.023-0.519,7.147-2.739,9.426-6.349c1.053,0.283,2.051,0.691,3.083,0.804	c4.042,0.442,7.324-1.165,9.732-4.8c0.922-1.391,1.793-3.194,1.793-6.354C92.169,61.788,90.874,58.821,88.699,56.831z"/><path fill="#fdfcef" d="M77.959,53.7c0,0,10.616,0,10.681,0c2.452,0,4.439-1.987,4.439-4.439	c0-2.139-1.513-3.924-3.527-4.344c0.023-0.187,0.039-0.377,0.039-0.57c0-2.539-2.058-4.598-4.597-4.598	c-1.499,0-2.827,0.721-3.666,1.831c-0.215-2.826-2.739-5.007-5.693-4.646c-2.16,0.264-3.947,1.934-4.344,4.073	c-0.127,0.686-0.114,1.352,0.013,1.977c-0.579-0.624-1.403-1.016-2.322-1.016c-1.68,0-3.052,1.308-3.16,2.961	c-0.763-0.169-1.593-0.158-2.467,0.17c-1.671,0.627-2.861,2.2-2.93,3.983c-0.099,2.533,1.925,4.617,4.435,4.617	c0.191,0,0.861,0,1.015,0h9.218"/><path fill="#472b29" d="M88.641,54.2H77.959c-0.276,0-0.5-0.224-0.5-0.5s0.224-0.5,0.5-0.5H88.64	c2.172,0,3.939-1.767,3.939-3.939c0-1.854-1.316-3.476-3.129-3.855c-0.254-0.053-0.425-0.292-0.394-0.55	c0.021-0.168,0.035-0.337,0.035-0.51c0-2.259-1.838-4.098-4.098-4.098c-1.292,0-2.483,0.595-3.267,1.632	c-0.126,0.166-0.34,0.237-0.54,0.179c-0.2-0.059-0.342-0.235-0.358-0.442c-0.094-1.238-0.701-2.401-1.664-3.19	c-0.973-0.798-2.207-1.149-3.471-0.997c-1.947,0.238-3.556,1.747-3.913,3.668c-0.112,0.601-0.108,1.201,0.011,1.786	c0.045,0.22-0.062,0.442-0.261,0.545c-0.199,0.102-0.443,0.06-0.595-0.104c-0.513-0.552-1.208-0.856-1.956-0.856	c-1.4,0-2.569,1.095-2.661,2.494c-0.01,0.146-0.082,0.28-0.199,0.367s-0.268,0.118-0.408,0.088c-0.755-0.167-1.468-0.118-2.183,0.15	c-1.498,0.562-2.545,1.982-2.606,3.535c-0.042,1.083,0.347,2.109,1.096,2.889c0.75,0.78,1.758,1.209,2.84,1.209h10.233	c0.276,0,0.5,0.224,0.5,0.5s-0.224,0.5-0.5,0.5H64.86c-1.356,0-2.621-0.539-3.561-1.516c-0.939-0.977-1.428-2.263-1.375-3.621	c0.076-1.949,1.384-3.73,3.254-4.432c0.72-0.27,1.464-0.363,2.221-0.279c0.362-1.655,1.842-2.884,3.582-2.884	c0.603,0,1.194,0.151,1.72,0.431c0.004-0.327,0.036-0.655,0.097-0.983c0.436-2.346,2.399-4.188,4.775-4.478	c1.54-0.191,3.039,0.244,4.226,1.216c0.899,0.737,1.543,1.742,1.847,2.851c0.919-0.807,2.094-1.256,3.347-1.256	c2.811,0,5.098,2.287,5.098,5.098c0,0.064-0.001,0.128-0.004,0.192c2.048,0.628,3.492,2.547,3.492,4.723	C93.579,51.984,91.364,54.2,88.641,54.2z"/><path fill="#472b29" d="M86.27,47.358c-0.018,0-0.037-0.002-0.056-0.006c-0.135-0.031-0.219-0.165-0.188-0.299	c0.045-0.199,0.113-0.393,0.201-0.574c0.716-1.484,2.651-2.054,4.317-1.268c0.125,0.059,0.179,0.208,0.12,0.333	c-0.059,0.126-0.209,0.177-0.333,0.12c-1.417-0.667-3.056-0.204-3.654,1.033c-0.072,0.148-0.127,0.305-0.164,0.468	C86.486,47.279,86.383,47.358,86.27,47.358z"/><path fill="#fff" d="M18.362,49.456H8.332c-0.276,0-0.5-0.224-0.5-0.5s0.224-0.5,0.5-0.5h10.03c0.276,0,0.5,0.224,0.5,0.5	S18.639,49.456,18.362,49.456z M21.244,49.456h-1.446c-0.276,0-0.5-0.224-0.5-0.5s0.224-0.5,0.5-0.5h1.446	c0.276,0,0.5,0.224,0.5,0.5S21.52,49.456,21.244,49.456z M25.298,49.456h-2.546c-0.276,0-0.5-0.224-0.5-0.5s0.224-0.5,0.5-0.5h2.546	c0.276,0,0.5,0.224,0.5,0.5S25.574,49.456,25.298,49.456z M25.298,51.321h-9.616c-0.276,0-0.5-0.224-0.5-0.5s0.224-0.5,0.5-0.5	h9.616c0.276,0,0.5,0.224,0.5,0.5S25.574,51.321,25.298,51.321z M13.95,51.321h-0.58c-0.276,0-0.5-0.224-0.5-0.5s0.224-0.5,0.5-0.5	h0.58c0.276,0,0.5,0.224,0.5,0.5S14.227,51.321,13.95,51.321z M11.573,51.321H9.117c-0.276,0-0.5-0.224-0.5-0.5s0.224-0.5,0.5-0.5	h2.456c0.276,0,0.5,0.224,0.5,0.5S11.85,51.321,11.573,51.321z M20.709,47.591h-5.027c-0.276,0-0.5-0.224-0.5-0.5s0.224-0.5,0.5-0.5	h5.027c0.276,0,0.5,0.224,0.5,0.5S20.985,47.591,20.709,47.591z M20.709,45.726h-1.257c-0.276,0-0.5-0.224-0.5-0.5	s0.224-0.5,0.5-0.5h1.257c0.276,0,0.5,0.224,0.5,0.5S20.985,45.726,20.709,45.726z M17.441,53.186h-1.759	c-0.276,0-0.5-0.224-0.5-0.5s0.224-0.5,0.5-0.5h1.759c0.276,0,0.5,0.224,0.5,0.5S17.717,53.186,17.441,53.186z M74.388,27.135	h-10.03c-0.276,0-0.5-0.224-0.5-0.5s0.224-0.5,0.5-0.5h10.03c0.276,0,0.5,0.224,0.5,0.5S74.665,27.135,74.388,27.135z M78.271,27.135h-2.446c-0.276,0-0.5-0.224-0.5-0.5s0.224-0.5,0.5-0.5h2.446c0.276,0,0.5,0.224,0.5,0.5S78.547,27.135,78.271,27.135	z M82.325,27.135h-2.546c-0.276,0-0.5-0.224-0.5-0.5s0.224-0.5,0.5-0.5h2.546c0.276,0,0.5,0.224,0.5,0.5	S82.602,27.135,82.325,27.135z M81.325,29h-7.617c-0.276,0-0.5-0.224-0.5-0.5s0.224-0.5,0.5-0.5h7.617c0.276,0,0.5,0.224,0.5,0.5	S81.602,29,81.325,29z M71.977,29h-6.58c-0.276,0-0.5-0.224-0.5-0.5s0.224-0.5,0.5-0.5h6.58c0.276,0,0.5,0.224,0.5,0.5	S72.254,29,71.977,29z M76.735,25.27h-5.028c-0.276,0-0.5-0.224-0.5-0.5s0.224-0.5,0.5-0.5h5.028c0.276,0,0.5,0.224,0.5,0.5	S77.012,25.27,76.735,25.27z M76.735,23.405h-1.257c-0.276,0-0.5-0.224-0.5-0.5s0.224-0.5,0.5-0.5h1.257c0.276,0,0.5,0.224,0.5,0.5	S77.012,23.405,76.735,23.405z M73.466,30.865h-5.759c-0.276,0-0.5-0.224-0.5-0.5s0.224-0.5,0.5-0.5h5.759	c0.276,0,0.5,0.224,0.5,0.5S73.743,30.865,73.466,30.865z"/><path fill="#5a5c70" d="M65.974,72.236H34.98c-3.314,0-6-2.686-6-6V34.988c0-3.314,2.686-6,6-6h30.995c3.314,0,6,2.686,6,6	v31.248C71.974,69.55,69.288,72.236,65.974,72.236z"/><path fill="#472b29" d="M66,29.4c3.088,0,5.6,2.512,5.6,5.6v31c0,3.088-2.512,5.6-5.6,5.6H35c-3.088,0-5.6-2.512-5.6-5.6V35	c0-3.088,2.512-5.6,5.6-5.6H66 M66,28H35c-3.866,0-7,3.134-7,7v31c0,3.866,3.134,7,7,7h31c3.866,0,7-3.134,7-7V35	C73,31.134,69.866,28,66,28L66,28z"/><path fill="#472b29" d="M47.044,31.5c0-0.276-0.224-0.5-0.5-0.5H36.431C33.436,31,31,33.436,31,36.43	c0,5.793,0,22.629,0,28.139c0,0.276,0.224,0.5,0.5,0.5s0.5-0.223,0.5-0.5c0-5.417,0-22.45,0-28.138C32,33.988,33.988,32,36.431,32	h10.113C46.82,32,47.044,31.776,47.044,31.5z"/><path fill="#472b29" d="M56.54,32h1.96c0.28,0,0.5-0.22,0.5-0.5S58.78,31,58.5,31h-1.96c-0.27,0-0.5,0.22-0.5,0.5	S56.27,32,56.54,32z"/><path fill="#472b29" d="M64.57,31H61.5c-0.28,0-0.5,0.22-0.5,0.5s0.22,0.5,0.5,0.5h3.07c2.44,0,4.43,1.99,4.43,4.43	c0,4.521,0,23.615,0,28.14c0,2.44-1.99,4.43-4.43,4.43c-6.812,0-20.188,0-27.139,0c-0.276,0-0.5,0.224-0.5,0.5s0.224,0.5,0.5,0.5	c7.017,0,20.27,0,27.139,0c2.99,0,5.43-2.44,5.43-5.43c0-4.524,0-23.617,0-28.14C70,33.44,67.56,31,64.57,31z"/><path fill="#472b29" d="M49.544,32h4c0.276,0,0.5-0.224,0.5-0.5s-0.224-0.5-0.5-0.5h-4c-0.276,0-0.5,0.224-0.5,0.5	S49.268,32,49.544,32z"/><path fill="#0ef" d="M45.434,41.242l-1.26,1.57l-1.75,0.16v-0.95c0-0.89,0.72-1.61,1.61-1.61	C44.645,40.412,45.165,40.742,45.434,41.242z"/><path fill="#0ef" d="M52.095,36.652v0.77l-1.353,1.376l-1.877,0.474v-2.62c0-0.89,0.72-1.61,1.61-1.61	S52.095,35.762,52.095,36.652z"/><path fill="#3eb5ff" d="M39.199,47.392v1.06l-1.516,1.85h-1.704v-2.91c0-0.89,0.72-1.61,1.61-1.61	C38.479,45.782,39.199,46.502,39.199,47.392z"/><path fill="#3eb5ff" d="M45.645,44.172c0,0.18,0.03,0.36,0.09,0.52l-1.367,1.521l-1.943,0.379v-3.62l3.01-1.73	c0.14,0.23,0.21,0.5,0.21,0.78C45.645,42.022,45.645,44.172,45.645,44.172z"/><polygon fill="#3eb5ff" points="52.095,37.422 52.095,41.032 50.48,42.892 48.865,42.892 48.865,39.272"/><path fill="#6882ff" d="M35.974,50.302l3.23-1.86v3.62l-1.328,1.412l-1.892,0.438c-0.01-0.02-0.01-0.05-0.01-0.08	C35.974,53.832,35.974,50.302,35.974,50.302z"/><path fill="#6882ff" d="M48.865,42.892l3.23-1.86v3.63l-2.681,2.302l-6.989,3.248v-3.62l3.31-1.9	c0.21,0.64,0.81,1.09,1.52,1.09c0.89,0,1.61-0.72,1.61-1.61C48.865,44.172,48.865,42.892,48.865,42.892z"/><path fill="#8163ff" d="M58.265,41.122l-1.12,1.081l-1.83,0.609v-0.79c0-0.89,0.72-1.61,1.61-1.61	C57.484,40.412,57.974,40.692,58.265,41.122z"/><path fill="#9a43ff" d="M35.984,53.912l3.22-1.85v1.77c0,0.89-0.73,1.61-1.61,1.61	C36.734,55.442,36.025,54.762,35.984,53.912z"/><path fill="#9a43ff" d="M42.424,50.212l9.67-5.55v3.62l-1.545,1.77l-2.245,0.41c-0.28-0.24-0.65-0.39-1.05-0.39	c-0.89,0-1.61,0.72-1.61,1.61v0.31l-1.565,1.617l-1.655,0.233C42.424,53.842,42.424,50.212,42.424,50.212z"/><path fill="#9a43ff" d="M58.535,42.022v2.56l-1.041,1.2l-2.179,0.65v-3.62l2.95-1.69	C58.434,41.382,58.535,41.692,58.535,42.022z"/><polygon fill="#d100ff" points="42.424,53.842 45.645,51.992 45.645,55.602 44.444,57.382 42.424,57.452"/><path fill="#d100ff" d="M52.095,50.612c0,0.41,0.15,0.78,0.4,1.06l-1.618,1.705l-2.012,0.375v-2.07	c0-0.49-0.22-0.92-0.56-1.22l3.79-2.18V50.612z"/><path fill="#d100ff" d="M58.535,46.852c0,0.43,0.17,0.81,0.44,1.1l-1.273,1.507l-2.387,0.593v-3.62l3.22-1.85V46.852z"/><path fill="#e900e1" d="M64.98,46.832v1.3l-6.919,4.571l-9.191,4.679v-3.63l3.63-2.08c0.294,0.354,0.754,0.549,1.21,0.55	c0.44,0,0.84-0.18,1.13-0.47c0.3-0.28,0.48-0.69,0.48-1.14v-0.56l3.66-2.1c0.296,0.33,0.721,0.505,1.17,0.51	c0.89,0,1.61-0.72,1.61-1.61c-0.003-0.2,0.03-0.376,0.1-0.56c0.22-0.62,0.81-1.07,1.51-1.07c0.306-0.001,0.587,0.087,0.85,0.24	C64.678,45.759,64.982,46.281,64.98,46.832z"/><path fill="#e900e1" d="M42.424,57.452v1.75c0,0.6,0.33,1.13,0.82,1.4c0.23,0.13,0.5,0.21,0.79,0.21	c0.88,0,1.59-0.7,1.61-1.58v-3.63L42.424,57.452z"/><path fill="#f07" d="M64.974,48.132v3.62l-1.528,1.543l-1.852,0.397c-0.25-0.55-0.8-0.93-1.45-0.93	c-0.89,0-1.61,0.72-1.61,1.61v1.08l-1.61,1.644l-1.79,0.306c-0.26-0.52-0.8-0.88-1.43-0.88c-0.89,0-1.61,0.72-1.61,1.61v1.02	l-1.458,1.294l-1.772,0.556v-3.62L64.974,48.132z"/><polygon fill="#ff084d" points="48.865,61.002 52.095,59.152 52.095,62.772 50.793,64.477 48.865,64.622"/><path fill="#ff084d" d="M55.134,57.402l3.4-1.95v3.62l-1.39,1.548l-1.83,0.302v-2.79	C55.315,57.872,55.255,57.622,55.134,57.402z"/><path fill="#ff084d" d="M64.974,51.752v2.65c0,0.89-0.72,1.61-1.61,1.61s-1.61-0.72-1.61-1.61v-0.03	c0-0.24-0.05-0.47-0.16-0.68L64.974,51.752z"/><path fill="#ff1024" d="M48.865,64.622l3.23-1.85v1.8c0,0.89-0.73,1.61-1.62,1.61C49.605,66.182,48.895,65.492,48.865,64.622	z"/><path fill="#ff1024" d="M58.535,59.072v2.28c0,0.89-0.72,1.61-1.61,1.61s-1.61-0.72-1.61-1.61v-0.43L58.535,59.072z"/><path fill="none" stroke="#472b29" stroke-linecap="round" stroke-linejoin="round" stroke-miterlimit="10" stroke-width=".75" d="M37.588,45.779c-0.89,0-1.611,0.721-1.611,1.611v6.444c0,0.89,0.721,1.611,1.611,1.611s1.611-0.721,1.611-1.611V47.39	C39.199,46.5,38.478,45.779,37.588,45.779z"/><path fill="none" stroke="#472b29" stroke-linecap="round" stroke-linejoin="round" stroke-miterlimit="10" stroke-width=".75" d="M63.366,45.223c-0.89,0-1.611,0.721-1.611,1.611v0.019c0,0.89-0.721,1.611-1.611,1.611l0,0c-0.89,0-1.611-0.721-1.611-1.611V42.02	c0-0.89-0.721-1.611-1.611-1.611s-1.611,0.721-1.611,1.611v8.593c0,0.89-0.721,1.611-1.611,1.611l0,0	c-0.89,0-1.611-0.721-1.611-1.611V36.649c0-0.89-0.721-1.611-1.611-1.611s-1.611,0.721-1.611,1.611v7.519	c0,0.89-0.721,1.611-1.611,1.611l0,0c-0.89,0-1.611-0.721-1.611-1.611V42.02c0-0.89-0.721-1.611-1.611-1.611	s-1.611,0.721-1.611,1.611v17.185c0,0.89,0.721,1.611,1.611,1.611s1.611-0.721,1.611-1.611v-7.519c0-0.89,0.721-1.611,1.611-1.611	l0,0c0.89,0,1.611,0.721,1.611,1.611v12.889c0,0.89,0.721,1.611,1.611,1.611s1.611-0.721,1.611-1.611v-6.444	c0-0.89,0.721-1.611,1.611-1.611l0,0c0.89,0,1.611,0.721,1.611,1.611v3.222c0,0.89,0.721,1.611,1.611,1.611s1.611-0.721,1.611-1.611	v-6.981c0-0.89,0.721-1.611,1.611-1.611l0,0c0.89,0,1.611,0.721,1.611,1.611v0.031c0,0.89,0.721,1.611,1.611,1.611	c0.89,0,1.611-0.721,1.611-1.611v-7.568C64.977,45.944,64.256,45.223,63.366,45.223z"/><path fill="#fdfcef" d="M32.5,73.5c0,0,1.567,0,3.5,0s3.5-1.567,3.5-3.5c0-1.781-1.335-3.234-3.055-3.455	C36.473,66.366,36.5,66.187,36.5,66c0-1.933-1.567-3.5-3.5-3.5c-1.032,0-1.95,0.455-2.59,1.165c-0.384-1.808-1.987-3.165-3.91-3.165	c-2.209,0-4,1.791-4,4c0,0.191,0.03,0.374,0.056,0.558C22.128,64.714,21.592,64.5,21,64.5c-1.228,0-2.245,0.887-2.455,2.055	C18.366,66.527,18.187,66.5,18,66.5c-1.933,0-3.5,1.567-3.5,3.5s1.567,3.5,3.5,3.5s7.5,0,7.5,0V74h7V73.5z"/><path fill="#472b29" d="M34.25,69C34.112,69,34,68.888,34,68.75c0-1.223,0.995-2.218,2.218-2.218	c0.034,0.009,0.737-0.001,1.244,0.136c0.133,0.036,0.212,0.173,0.176,0.306c-0.036,0.134-0.173,0.213-0.306,0.176	c-0.444-0.12-1.1-0.12-1.113-0.118c-0.948,0-1.719,0.771-1.719,1.718C34.5,68.888,34.388,69,34.25,69z"/><circle cx="27.5" cy="73.5" r=".5" fill="#472b29"/><path fill="#472b29" d="M36,74h-3.5c-0.276,0-0.5-0.224-0.5-0.5s0.224-0.5,0.5-0.5H36c1.654,0,3-1.346,3-3	c0-1.496-1.125-2.768-2.618-2.959c-0.134-0.018-0.255-0.088-0.336-0.196s-0.115-0.244-0.094-0.377C35.975,66.314,36,66.16,36,66	c0-1.654-1.346-3-3-3c-0.85,0-1.638,0.355-2.219,1c-0.125,0.139-0.321,0.198-0.5,0.148c-0.182-0.049-0.321-0.195-0.36-0.379	C29.58,62.165,28.141,61,26.5,61c-1.93,0-3.5,1.57-3.5,3.5c0,0.143,0.021,0.28,0.041,0.418c0.029,0.203-0.063,0.438-0.242,0.54	s-0.396,0.118-0.556-0.01C21.879,65.155,21.449,65,21,65c-0.966,0-1.792,0.691-1.963,1.644c-0.048,0.267-0.296,0.446-0.569,0.405	C18.315,67.025,18.16,67,18,67c-1.654,0-3,1.346-3,3s1.346,3,3,3h7.5c0.276,0,0.5,0.224,0.5,0.5S25.777,74,25.5,74H18	c-2.206,0-4-1.794-4-4s1.794-4,4-4c0.059,0,0.116,0.002,0.174,0.006C18.588,64.82,19.711,64,21,64c0.349,0,0.689,0.061,1.011,0.18	C22.176,61.847,24.127,60,26.5,60c1.831,0,3.466,1.127,4.153,2.774C31.334,62.276,32.155,62,33,62c2.206,0,4,1.794,4,4	c0,0.048-0.001,0.095-0.004,0.142C38.739,66.59,40,68.169,40,70C40,72.206,38.206,74,36,74z"/><path fill="#472b29" d="M30.5,73c-0.159,0-0.841,0-1,0c-0.276,0-0.5,0.224-0.5,0.5s0.224,0.5,0.5,0.5c0.159,0,0.841,0,1,0	c0.276,0,0.5-0.224,0.5-0.5S30.776,73,30.5,73z"/></svg>