<?xml version="1.0" ?><svg width="64px" height="64px" viewBox="0 0 64 64" style="enable-background:new 0 0 64 64;" version="1.1" xml:space="preserve" xmlns="http://www.w3.org/2000/svg" xmlns:xlink="http://www.w3.org/1999/xlink"><g id="cloudy_sunny"/><g id="bright"/><g id="cloudy"/><g id="high_rainfall"/><g id="windy"/><g id="rain_with_thunder"/><g id="clear_night"/><g id="cloudy_night"/><g id="moon"/><g id="sun"/><g id="rainy_night"/><g id="windy_night"/><g id="night_rain_thunder"/><g id="windy_rain"/><g id="temperature"><g><path d="M39,32.7V10c0-3.9-3.1-7-7-7s-7,3.1-7,7v22.7c-5.4,2.8-8.5,8.5-7.9,14.6c0.7,7.4,6.8,13.3,14.2,13.6c0.2,0,0.5,0,0.7,0    c3.9,0,7.5-1.5,10.3-4.1C45.3,54,47,50.1,47,46C47,40.5,43.9,35.3,39,32.7z M41,55.4c-2.6,2.5-6,3.8-9.6,3.6    c-6.4-0.3-11.7-5.4-12.3-11.8c-0.5-5.5,2.4-10.6,7.4-12.9c0.3-0.2,0.6-0.5,0.6-0.9V10c0-2.8,2.2-5,5-5s5,2.2,5,5v23.4    c0,0.4,0.2,0.7,0.6,0.9C42.1,36.4,45,41,45,46C45,49.6,43.6,52.9,41,55.4z"/><path d="M35.7,36.7c-0.4-0.2-0.7-0.5-0.7-0.9V14.1c0-1.5-1.1-2.8-2.5-3.1c-0.9-0.1-1.8,0.1-2.4,0.7S29,13.1,29,14v21.8    c0,0.4-0.3,0.8-0.7,0.9c-3.8,1.5-6.3,5.1-6.3,9.3c0,5.4,4.3,9.9,9.7,10c0.1,0,0.2,0,0.3,0c2.6,0,5.1-1,7-2.8c2-1.9,3-4.4,3-7.2    C42,41.9,39.5,38.2,35.7,36.7z M31.4,13.2c0.2-0.2,0.4-0.2,0.6-0.2c0.1,0,0.1,0,0.2,0c0.5,0.1,0.8,0.6,0.8,1.1V23h-2v-9    C31,13.7,31.1,13.4,31.4,13.2z M37.6,51.7c-1.6,1.5-3.6,2.3-5.8,2.3c-4.2-0.1-7.8-3.8-7.8-8c0-3.3,2-6.2,5.1-7.4    c1.2-0.5,1.9-1.5,1.9-2.8V25h2v10.8c0,1.2,0.8,2.3,1.9,2.8C38,39.8,40,42.7,40,46C40,48.2,39.1,50.2,37.6,51.7z"/><path d="M20,29v-8h2c0.4,0,0.7-0.2,0.9-0.5c0.2-0.3,0.1-0.7-0.1-1l-5-7c-0.4-0.5-1.3-0.5-1.6,0l-5,7c-0.2,0.3-0.2,0.7-0.1,1    c0.2,0.3,0.5,0.5,0.9,0.5h2v8c0,0.6,0.4,1,1,1h4C19.6,30,20,29.6,20,29z M18,20v8h-2v-8c0-0.6-0.4-1-1-1h-1.1l3.1-4.3l3.1,4.3H19    C18.4,19,18,19.4,18,20z"/><path d="M52.9,21.5C52.7,21.2,52.4,21,52,21h-2v-8c0-0.6-0.4-1-1-1h-4c-0.6,0-1,0.4-1,1v8h-2c-0.4,0-0.7,0.2-0.9,0.5    c-0.2,0.3-0.1,0.7,0.1,1l5,7c0.2,0.3,0.5,0.4,0.8,0.4s0.6-0.2,0.8-0.4l5-7C53,22.3,53.1,21.9,52.9,21.5z M47,27.3L43.9,23H45    c0.6,0,1-0.4,1-1v-8h2v8c0,0.6,0.4,1,1,1h1.1L47,27.3z"/></g></g><g id="humidity"/><g id="air_pressure"/><g id="low_rainfall"/><g id="moderate_rainfall"/><g id="Sunset"/></svg>